<mxfile host="app.diagrams.net" modified="2020-09-08T13:28:55.372Z" agent="5.0 (Windows)" etag="ujGcJ21BPd-kYIK2aJLY" version="13.6.8" type="github">
  <diagram id="ULhpWxFNTIIWzPGshfsr" name="Page-1">
    <mxGraphModel dx="1695" dy="479" grid="1" gridSize="10" guides="1" tooltips="1" connect="1" arrows="1" fold="1" page="1" pageScale="1" pageWidth="827" pageHeight="1169" math="0" shadow="0">
      <root>
        <mxCell id="0" />
        <mxCell id="1" parent="0" />
        <mxCell id="LlnX-2IG8yPzgnpLX-u9-1" value="Project files structure" style="swimlane;html=1;startSize=20;horizontal=1;containerType=tree;" parent="1" vertex="1">
          <mxGeometry x="-80" y="20" width="920" height="580" as="geometry" />
        </mxCell>
        <mxCell id="LlnX-2IG8yPzgnpLX-u9-8" style="edgeStyle=orthogonalEdgeStyle;rounded=0;orthogonalLoop=1;jettySize=auto;html=1;exitX=0.5;exitY=1;exitDx=0;exitDy=0;entryX=0;entryY=0.5;entryDx=0;entryDy=0;" parent="LlnX-2IG8yPzgnpLX-u9-1" source="LlnX-2IG8yPzgnpLX-u9-3" target="LlnX-2IG8yPzgnpLX-u9-6" edge="1">
          <mxGeometry relative="1" as="geometry" />
        </mxCell>
        <mxCell id="LlnX-2IG8yPzgnpLX-u9-9" style="edgeStyle=orthogonalEdgeStyle;rounded=0;orthogonalLoop=1;jettySize=auto;html=1;exitX=0.5;exitY=1;exitDx=0;exitDy=0;entryX=0;entryY=0.5;entryDx=0;entryDy=0;" parent="LlnX-2IG8yPzgnpLX-u9-1" source="LlnX-2IG8yPzgnpLX-u9-3" target="LlnX-2IG8yPzgnpLX-u9-4" edge="1">
          <mxGeometry relative="1" as="geometry" />
        </mxCell>
        <mxCell id="LlnX-2IG8yPzgnpLX-u9-12" style="edgeStyle=orthogonalEdgeStyle;rounded=0;orthogonalLoop=1;jettySize=auto;html=1;exitX=0.5;exitY=1;exitDx=0;exitDy=0;entryX=0;entryY=0.5;entryDx=0;entryDy=0;" parent="LlnX-2IG8yPzgnpLX-u9-1" source="LlnX-2IG8yPzgnpLX-u9-3" target="LlnX-2IG8yPzgnpLX-u9-10" edge="1">
          <mxGeometry relative="1" as="geometry" />
        </mxCell>
        <mxCell id="LlnX-2IG8yPzgnpLX-u9-13" style="edgeStyle=orthogonalEdgeStyle;rounded=0;orthogonalLoop=1;jettySize=auto;html=1;exitX=0.5;exitY=1;exitDx=0;exitDy=0;entryX=0;entryY=0.5;entryDx=0;entryDy=0;" parent="LlnX-2IG8yPzgnpLX-u9-1" source="LlnX-2IG8yPzgnpLX-u9-3" target="LlnX-2IG8yPzgnpLX-u9-11" edge="1">
          <mxGeometry relative="1" as="geometry" />
        </mxCell>
        <mxCell id="LlnX-2IG8yPzgnpLX-u9-33" style="edgeStyle=orthogonalEdgeStyle;rounded=0;orthogonalLoop=1;jettySize=auto;html=1;exitX=0.5;exitY=1;exitDx=0;exitDy=0;entryX=0;entryY=0.5;entryDx=0;entryDy=0;" parent="LlnX-2IG8yPzgnpLX-u9-1" source="LlnX-2IG8yPzgnpLX-u9-3" target="LlnX-2IG8yPzgnpLX-u9-32" edge="1">
          <mxGeometry relative="1" as="geometry" />
        </mxCell>
        <mxCell id="3cNrSyrCyQC4IQd-5IiQ-3" style="edgeStyle=orthogonalEdgeStyle;rounded=0;orthogonalLoop=1;jettySize=auto;html=1;exitX=0.5;exitY=1;exitDx=0;exitDy=0;entryX=0;entryY=0.5;entryDx=0;entryDy=0;" edge="1" parent="LlnX-2IG8yPzgnpLX-u9-1" source="LlnX-2IG8yPzgnpLX-u9-3" target="LlnX-2IG8yPzgnpLX-u9-34">
          <mxGeometry relative="1" as="geometry" />
        </mxCell>
        <mxCell id="3cNrSyrCyQC4IQd-5IiQ-6" style="edgeStyle=orthogonalEdgeStyle;rounded=0;orthogonalLoop=1;jettySize=auto;html=1;exitX=0.5;exitY=1;exitDx=0;exitDy=0;entryX=0;entryY=0.5;entryDx=0;entryDy=0;" edge="1" parent="LlnX-2IG8yPzgnpLX-u9-1" source="LlnX-2IG8yPzgnpLX-u9-3" target="3cNrSyrCyQC4IQd-5IiQ-4">
          <mxGeometry relative="1" as="geometry" />
        </mxCell>
        <mxCell id="3cNrSyrCyQC4IQd-5IiQ-7" style="edgeStyle=orthogonalEdgeStyle;rounded=0;orthogonalLoop=1;jettySize=auto;html=1;exitX=0.5;exitY=1;exitDx=0;exitDy=0;entryX=0;entryY=0.5;entryDx=0;entryDy=0;" edge="1" parent="LlnX-2IG8yPzgnpLX-u9-1" source="LlnX-2IG8yPzgnpLX-u9-3" target="3cNrSyrCyQC4IQd-5IiQ-5">
          <mxGeometry relative="1" as="geometry" />
        </mxCell>
        <mxCell id="LlnX-2IG8yPzgnpLX-u9-3" value="Duckvil" style="whiteSpace=wrap;html=1;treeFolding=1;treeMoving=1;newEdgeStyle={&quot;edgeStyle&quot;:&quot;elbowEdgeStyle&quot;,&quot;startArrow&quot;:&quot;none&quot;,&quot;endArrow&quot;:&quot;none&quot;};" parent="LlnX-2IG8yPzgnpLX-u9-1" vertex="1">
          <mxGeometry x="10" y="30" width="120" height="40" as="geometry" />
        </mxCell>
        <mxCell id="LlnX-2IG8yPzgnpLX-u9-4" value="README.md" style="whiteSpace=wrap;html=1;treeFolding=1;treeMoving=1;newEdgeStyle={&quot;edgeStyle&quot;:&quot;elbowEdgeStyle&quot;,&quot;startArrow&quot;:&quot;none&quot;,&quot;endArrow&quot;:&quot;none&quot;};fillColor=#e1d5e7;strokeColor=#9673a6;" parent="LlnX-2IG8yPzgnpLX-u9-1" vertex="1">
          <mxGeometry x="140" y="330" width="120" height="40" as="geometry" />
        </mxCell>
        <mxCell id="LlnX-2IG8yPzgnpLX-u9-24" style="edgeStyle=orthogonalEdgeStyle;rounded=0;orthogonalLoop=1;jettySize=auto;html=1;exitX=0.5;exitY=1;exitDx=0;exitDy=0;entryX=0;entryY=0.5;entryDx=0;entryDy=0;" parent="LlnX-2IG8yPzgnpLX-u9-1" source="LlnX-2IG8yPzgnpLX-u9-6" target="LlnX-2IG8yPzgnpLX-u9-14" edge="1">
          <mxGeometry relative="1" as="geometry" />
        </mxCell>
        <mxCell id="LlnX-2IG8yPzgnpLX-u9-26" style="edgeStyle=orthogonalEdgeStyle;rounded=0;orthogonalLoop=1;jettySize=auto;html=1;exitX=0.5;exitY=1;exitDx=0;exitDy=0;entryX=0;entryY=0.5;entryDx=0;entryDy=0;" parent="LlnX-2IG8yPzgnpLX-u9-1" source="LlnX-2IG8yPzgnpLX-u9-6" target="LlnX-2IG8yPzgnpLX-u9-25" edge="1">
          <mxGeometry relative="1" as="geometry" />
        </mxCell>
        <mxCell id="LlnX-2IG8yPzgnpLX-u9-6" value="external" style="whiteSpace=wrap;html=1;treeFolding=1;treeMoving=1;newEdgeStyle={&quot;edgeStyle&quot;:&quot;elbowEdgeStyle&quot;,&quot;startArrow&quot;:&quot;none&quot;,&quot;endArrow&quot;:&quot;none&quot;};" parent="LlnX-2IG8yPzgnpLX-u9-1" vertex="1">
          <mxGeometry x="670" y="80" width="120" height="40" as="geometry" />
        </mxCell>
        <mxCell id="LlnX-2IG8yPzgnpLX-u9-27" style="edgeStyle=orthogonalEdgeStyle;rounded=0;orthogonalLoop=1;jettySize=auto;html=1;exitX=0.5;exitY=1;exitDx=0;exitDy=0;entryX=0;entryY=0.5;entryDx=0;entryDy=0;" parent="LlnX-2IG8yPzgnpLX-u9-1" source="LlnX-2IG8yPzgnpLX-u9-10" target="LlnX-2IG8yPzgnpLX-u9-22" edge="1">
          <mxGeometry relative="1" as="geometry" />
        </mxCell>
        <mxCell id="LlnX-2IG8yPzgnpLX-u9-29" style="edgeStyle=orthogonalEdgeStyle;rounded=0;orthogonalLoop=1;jettySize=auto;html=1;exitX=0.5;exitY=1;exitDx=0;exitDy=0;entryX=0;entryY=0.5;entryDx=0;entryDy=0;" parent="LlnX-2IG8yPzgnpLX-u9-1" source="LlnX-2IG8yPzgnpLX-u9-10" target="LlnX-2IG8yPzgnpLX-u9-28" edge="1">
          <mxGeometry relative="1" as="geometry" />
        </mxCell>
        <mxCell id="LlnX-2IG8yPzgnpLX-u9-31" style="edgeStyle=orthogonalEdgeStyle;rounded=0;orthogonalLoop=1;jettySize=auto;html=1;exitX=0.5;exitY=1;exitDx=0;exitDy=0;entryX=0;entryY=0.5;entryDx=0;entryDy=0;" parent="LlnX-2IG8yPzgnpLX-u9-1" source="LlnX-2IG8yPzgnpLX-u9-10" target="LlnX-2IG8yPzgnpLX-u9-30" edge="1">
          <mxGeometry relative="1" as="geometry" />
        </mxCell>
        <mxCell id="3cNrSyrCyQC4IQd-5IiQ-2" style="edgeStyle=orthogonalEdgeStyle;rounded=0;orthogonalLoop=1;jettySize=auto;html=1;exitX=0.5;exitY=1;exitDx=0;exitDy=0;entryX=0;entryY=0.5;entryDx=0;entryDy=0;" edge="1" parent="LlnX-2IG8yPzgnpLX-u9-1" source="LlnX-2IG8yPzgnpLX-u9-10" target="3cNrSyrCyQC4IQd-5IiQ-1">
          <mxGeometry relative="1" as="geometry" />
        </mxCell>
        <mxCell id="3cNrSyrCyQC4IQd-5IiQ-9" style="edgeStyle=orthogonalEdgeStyle;rounded=0;orthogonalLoop=1;jettySize=auto;html=1;exitX=0.5;exitY=1;exitDx=0;exitDy=0;entryX=0;entryY=0.5;entryDx=0;entryDy=0;" edge="1" parent="LlnX-2IG8yPzgnpLX-u9-1" source="LlnX-2IG8yPzgnpLX-u9-10" target="3cNrSyrCyQC4IQd-5IiQ-8">
          <mxGeometry relative="1" as="geometry" />
        </mxCell>
        <mxCell id="LlnX-2IG8yPzgnpLX-u9-10" value="source" style="whiteSpace=wrap;html=1;treeFolding=1;treeMoving=1;newEdgeStyle={&quot;edgeStyle&quot;:&quot;elbowEdgeStyle&quot;,&quot;startArrow&quot;:&quot;none&quot;,&quot;endArrow&quot;:&quot;none&quot;};" parent="LlnX-2IG8yPzgnpLX-u9-1" vertex="1">
          <mxGeometry x="470" y="130" width="120" height="40" as="geometry" />
        </mxCell>
        <mxCell id="3cNrSyrCyQC4IQd-5IiQ-12" style="edgeStyle=orthogonalEdgeStyle;rounded=0;orthogonalLoop=1;jettySize=auto;html=1;exitX=0.5;exitY=1;exitDx=0;exitDy=0;entryX=0;entryY=0.5;entryDx=0;entryDy=0;" edge="1" parent="LlnX-2IG8yPzgnpLX-u9-1" source="LlnX-2IG8yPzgnpLX-u9-11" target="3cNrSyrCyQC4IQd-5IiQ-10">
          <mxGeometry relative="1" as="geometry" />
        </mxCell>
        <mxCell id="LlnX-2IG8yPzgnpLX-u9-11" value="include" style="whiteSpace=wrap;html=1;treeFolding=1;treeMoving=1;newEdgeStyle={&quot;edgeStyle&quot;:&quot;elbowEdgeStyle&quot;,&quot;startArrow&quot;:&quot;none&quot;,&quot;endArrow&quot;:&quot;none&quot;};" parent="LlnX-2IG8yPzgnpLX-u9-1" vertex="1">
          <mxGeometry x="270" y="180" width="120" height="40" as="geometry" />
        </mxCell>
        <mxCell id="LlnX-2IG8yPzgnpLX-u9-14" value="assimp" style="whiteSpace=wrap;html=1;treeFolding=1;treeMoving=1;newEdgeStyle={&quot;edgeStyle&quot;:&quot;elbowEdgeStyle&quot;,&quot;startArrow&quot;:&quot;none&quot;,&quot;endArrow&quot;:&quot;none&quot;};fillColor=#f8cecc;strokeColor=#b85450;" parent="LlnX-2IG8yPzgnpLX-u9-1" vertex="1">
          <mxGeometry x="800" y="130" width="120" height="40" as="geometry" />
        </mxCell>
        <mxCell id="LlnX-2IG8yPzgnpLX-u9-22" value="Duckvil" style="whiteSpace=wrap;html=1;treeFolding=1;treeMoving=1;newEdgeStyle={&quot;edgeStyle&quot;:&quot;elbowEdgeStyle&quot;,&quot;startArrow&quot;:&quot;none&quot;,&quot;endArrow&quot;:&quot;none&quot;};" parent="LlnX-2IG8yPzgnpLX-u9-1" vertex="1">
          <mxGeometry x="600" y="230" width="120" height="40" as="geometry" />
        </mxCell>
        <mxCell id="LlnX-2IG8yPzgnpLX-u9-25" value="glew" style="whiteSpace=wrap;html=1;treeFolding=1;treeMoving=1;newEdgeStyle={&quot;edgeStyle&quot;:&quot;elbowEdgeStyle&quot;,&quot;startArrow&quot;:&quot;none&quot;,&quot;endArrow&quot;:&quot;none&quot;};fillColor=#f8cecc;strokeColor=#b85450;" parent="LlnX-2IG8yPzgnpLX-u9-1" vertex="1">
          <mxGeometry x="800" y="180" width="120" height="40" as="geometry" />
        </mxCell>
        <mxCell id="LlnX-2IG8yPzgnpLX-u9-28" value="RuntimeReflection" style="whiteSpace=wrap;html=1;treeFolding=1;treeMoving=1;newEdgeStyle={&quot;edgeStyle&quot;:&quot;elbowEdgeStyle&quot;,&quot;startArrow&quot;:&quot;none&quot;,&quot;endArrow&quot;:&quot;none&quot;};" parent="LlnX-2IG8yPzgnpLX-u9-1" vertex="1">
          <mxGeometry x="600" y="280" width="120" height="40" as="geometry" />
        </mxCell>
        <mxCell id="LlnX-2IG8yPzgnpLX-u9-30" value="PlugNPlay" style="whiteSpace=wrap;html=1;treeFolding=1;treeMoving=1;newEdgeStyle={&quot;edgeStyle&quot;:&quot;elbowEdgeStyle&quot;,&quot;startArrow&quot;:&quot;none&quot;,&quot;endArrow&quot;:&quot;none&quot;};" parent="LlnX-2IG8yPzgnpLX-u9-1" vertex="1">
          <mxGeometry x="600" y="330" width="120" height="40" as="geometry" />
        </mxCell>
        <mxCell id="LlnX-2IG8yPzgnpLX-u9-32" value="&lt;div&gt;__generated_&lt;/div&gt;&lt;div&gt;reflection__&lt;/div&gt;" style="whiteSpace=wrap;html=1;treeFolding=1;treeMoving=1;newEdgeStyle={&quot;edgeStyle&quot;:&quot;elbowEdgeStyle&quot;,&quot;startArrow&quot;:&quot;none&quot;,&quot;endArrow&quot;:&quot;none&quot;};" parent="LlnX-2IG8yPzgnpLX-u9-1" vertex="1">
          <mxGeometry x="140" y="230" width="120" height="40" as="geometry" />
        </mxCell>
        <mxCell id="LlnX-2IG8yPzgnpLX-u9-34" value="bin" style="whiteSpace=wrap;html=1;treeFolding=1;treeMoving=1;newEdgeStyle={&quot;edgeStyle&quot;:&quot;elbowEdgeStyle&quot;,&quot;startArrow&quot;:&quot;none&quot;,&quot;endArrow&quot;:&quot;none&quot;};" parent="LlnX-2IG8yPzgnpLX-u9-1" vertex="1">
          <mxGeometry x="140" y="280" width="120" height="40" as="geometry" />
        </mxCell>
        <mxCell id="3cNrSyrCyQC4IQd-5IiQ-1" value="CMakeLists.txt" style="whiteSpace=wrap;html=1;treeFolding=1;treeMoving=1;newEdgeStyle={&quot;edgeStyle&quot;:&quot;elbowEdgeStyle&quot;,&quot;startArrow&quot;:&quot;none&quot;,&quot;endArrow&quot;:&quot;none&quot;};fillColor=#e1d5e7;strokeColor=#9673a6;" vertex="1" parent="LlnX-2IG8yPzgnpLX-u9-1">
          <mxGeometry x="600" y="180" width="120" height="40" as="geometry" />
        </mxCell>
        <mxCell id="3cNrSyrCyQC4IQd-5IiQ-4" value="CMakeLists.txt" style="whiteSpace=wrap;html=1;treeFolding=1;treeMoving=1;newEdgeStyle={&quot;edgeStyle&quot;:&quot;elbowEdgeStyle&quot;,&quot;startArrow&quot;:&quot;none&quot;,&quot;endArrow&quot;:&quot;none&quot;};fillColor=#e1d5e7;strokeColor=#9673a6;" vertex="1" parent="LlnX-2IG8yPzgnpLX-u9-1">
          <mxGeometry x="140" y="380" width="120" height="40" as="geometry" />
        </mxCell>
        <mxCell id="3cNrSyrCyQC4IQd-5IiQ-5" value=".gitignore" style="whiteSpace=wrap;html=1;treeFolding=1;treeMoving=1;newEdgeStyle={&quot;edgeStyle&quot;:&quot;elbowEdgeStyle&quot;,&quot;startArrow&quot;:&quot;none&quot;,&quot;endArrow&quot;:&quot;none&quot;};fillColor=#e1d5e7;strokeColor=#9673a6;" vertex="1" parent="LlnX-2IG8yPzgnpLX-u9-1">
          <mxGeometry x="140" y="430" width="120" height="40" as="geometry" />
        </mxCell>
        <mxCell id="3cNrSyrCyQC4IQd-5IiQ-8" value="Utils" style="whiteSpace=wrap;html=1;treeFolding=1;treeMoving=1;newEdgeStyle={&quot;edgeStyle&quot;:&quot;elbowEdgeStyle&quot;,&quot;startArrow&quot;:&quot;none&quot;,&quot;endArrow&quot;:&quot;none&quot;};" vertex="1" parent="LlnX-2IG8yPzgnpLX-u9-1">
          <mxGeometry x="600" y="380" width="120" height="40" as="geometry" />
        </mxCell>
        <mxCell id="3cNrSyrCyQC4IQd-5IiQ-10" value="Utils" style="whiteSpace=wrap;html=1;treeFolding=1;treeMoving=1;newEdgeStyle={&quot;edgeStyle&quot;:&quot;elbowEdgeStyle&quot;,&quot;startArrow&quot;:&quot;none&quot;,&quot;endArrow&quot;:&quot;none&quot;};" vertex="1" parent="LlnX-2IG8yPzgnpLX-u9-1">
          <mxGeometry x="360" y="250" width="120" height="40" as="geometry" />
        </mxCell>
        <mxCell id="LlnX-2IG8yPzgnpLX-u9-16" value="" style="rounded=0;whiteSpace=wrap;html=1;" parent="1" vertex="1">
          <mxGeometry x="850" y="20" width="120" height="40" as="geometry" />
        </mxCell>
        <mxCell id="LlnX-2IG8yPzgnpLX-u9-17" value="Directory" style="text;html=1;strokeColor=none;fillColor=none;align=center;verticalAlign=middle;whiteSpace=wrap;rounded=0;" parent="1" vertex="1">
          <mxGeometry x="890" y="30" width="40" height="20" as="geometry" />
        </mxCell>
        <mxCell id="LlnX-2IG8yPzgnpLX-u9-18" value="" style="rounded=0;whiteSpace=wrap;html=1;fillColor=#e1d5e7;strokeColor=#9673a6;" parent="1" vertex="1">
          <mxGeometry x="850" y="70" width="120" height="40" as="geometry" />
        </mxCell>
        <mxCell id="LlnX-2IG8yPzgnpLX-u9-19" value="File" style="text;html=1;strokeColor=none;fillColor=none;align=center;verticalAlign=middle;whiteSpace=wrap;rounded=0;" parent="1" vertex="1">
          <mxGeometry x="890" y="80" width="40" height="20" as="geometry" />
        </mxCell>
        <mxCell id="LlnX-2IG8yPzgnpLX-u9-20" value="" style="rounded=0;whiteSpace=wrap;html=1;fillColor=#f8cecc;strokeColor=#b85450;" parent="1" vertex="1">
          <mxGeometry x="850" y="120" width="120" height="40" as="geometry" />
        </mxCell>
        <mxCell id="LlnX-2IG8yPzgnpLX-u9-21" value="External lib" style="text;html=1;strokeColor=none;fillColor=none;align=center;verticalAlign=middle;whiteSpace=wrap;rounded=0;" parent="1" vertex="1">
          <mxGeometry x="890" y="130" width="40" height="20" as="geometry" />
        </mxCell>
      </root>
    </mxGraphModel>
  </diagram>
</mxfile>
